Coordinates
version=1
nRows=19
nColumns=24
inDegrees=yes

Units are S.I. units (second, meters, Newtons, ...)
Angles are in degrees.

endheader
time	pelvis_tilt	pelvis_list	pelvis_rotation	pelvis_tx	pelvis_ty	pelvis_tz	hip_flexion_r	hip_adduction_r	hip_rotation_r	knee_angle_r	ankle_angle_r	subtalar_angle_r	mtp_angle_r	hip_flexion_l	hip_adduction_l	hip_rotation_l	knee_angle_l	ankle_angle_l	subtalar_angle_l	mtp_angle_l	lumbar_extension	lumbar_bending	lumbar_rotation
      0.55800000	     -0.03615658	      7.21612083	      3.92456099	     -0.89073696	      0.99333274	      0.24667084	     24.30461847	     -5.95344755	     -6.24695759	     -1.53860898	      5.99216972	     -8.29719248	      7.56034917	    -18.71612543	      9.72834045	      9.62992936	     -4.47960668	      9.03561159	    -14.63431952	      4.80972799	     -4.58784852	     -8.82282728	     -2.63149417
      0.56216667	      0.00014073	      7.16205445	      4.00188169	     -0.88468884	      0.99284205	      0.24670439	     24.31111408	     -5.89812979	     -6.03606320	     -2.06099080	      6.09335196	     -8.50830531	      7.55631416	    -18.86033916	      9.62982446	      9.68349095	     -4.99946849	      9.06154147	    -14.59337467	      4.83368939	     -4.58572923	     -8.69974397	     -2.68281251
      0.56633333	     -0.02132418	      7.10662851	      4.08451899	     -0.87859475	      0.99231075	      0.24678621	     24.35911242	     -5.83484739	     -5.73332373	     -2.59169688	      6.13027609	     -8.80506801	      7.55400792	    -18.89796084	      9.52867245	      9.64485850	     -5.60324457	      9.13919823	    -14.31641832	      4.90055702	     -4.54578715	     -8.59495136	     -2.83944734
      0.57050000	     -0.00240433	      7.02794167	      4.16406793	     -0.87243876	      0.99187284	      0.24684956	     24.35012952	     -5.74574968	     -5.51174183	     -3.13355808	      6.03644527	     -9.08743071	      7.56605253	    -18.93668856	      9.39828858	      9.46420271	     -6.28678986	      9.22154266	    -13.89125655	      5.04581625	     -4.51140800	     -8.44666862	     -2.97956026
      0.57466667	     -0.00122995	      6.95827733	      4.24147517	     -0.86623411	      0.99144532	      0.24692030	     24.35779086	     -5.66363865	     -5.26833287	     -3.71542116	      6.01913438	     -9.30757404	      7.58557462	    -18.97162028	      9.28600908	      9.41897289	     -6.94548557	      9.23966121	    -13.69085838	      5.15713776	     -4.46877004	     -8.31218620	     -3.06149894
      0.57883333	      0.00659797	      6.86772834	      4.32060422	     -0.85996161	      0.99107415	      0.24700530	     24.33007195	     -5.55506243	     -5.05416001	     -4.26766521	      5.82320178	     -9.59300631	      7.63334281	    -18.95857015	      9.14377041	      9.21527394	     -7.70379823	      9.25682364	    -13.25738923	      5.36881415	     -4.40898477	     -8.15080243	     -3.18322953
      0.58300000	      0.04177997	      6.75966546	      4.38276839	     -0.85364803	      0.99076598	      0.24710518	     24.26326145	     -5.41976445	     -4.84054285	     -4.82376041	      5.63300273	     -9.83480375	      7.75428284	    -18.95494648	      8.98671808	      8.99473290	     -8.49896440	      9.28830033	    -12.84545561	      5.81121346	     -4.38073860	     -7.95378459	     -3.23954257
      0.58716667	      0.04295705	      6.66541453	      4.45271680	     -0.84727887	      0.99046424	      0.24722557	     24.22400666	     -5.29893740	     -4.64008650	     -5.38788179	      5.37837013	    -10.10847154	      7.89581412	    -18.89749430	      8.84210816	      8.78125532	     -9.31854429	      9.22994959	    -12.43598996	      6.29783607	     -4.30993132	     -7.79400676	     -3.32965443
      0.59133333	      0.00368881	      6.59250082	      4.50504147	     -0.84091908	      0.99012552	      0.24736131	     24.24251003	     -5.19562330	     -4.41580030	     -5.98868192	      5.13652085	    -10.33554810	      7.96013380	    -18.77855448	      8.73818795	      8.61178492	    -10.17563471	      9.08957657	    -12.20016254	      6.51446082	     -4.18313968	     -7.66785895	     -3.41346852
      0.59550000	     -0.00030068	      6.46863350	      4.56805408	     -0.83445382	      0.98990388	      0.24750071	     24.17482454	     -5.03983412	     -4.25825532	     -6.51323905	      4.76358572	    -10.57964018	      8.04477875	    -18.64977035	      8.56042309	      8.30700292	    -11.11714426	      8.98809693	    -11.71205909	      6.80091512	     -4.08158524	     -7.46047173	     -3.47123022
      0.59966667	      0.01495648	      6.35737860	      4.61902176	     -0.82800541	      0.98972586	      0.24768943	     24.08816155	     -4.88844282	     -4.07330932	     -7.05103273	      4.46730192	    -10.85971327	      8.18615223	    -18.49497345	      8.39076778	      7.93684787	    -12.14431928	      8.88573924	    -11.16394562	      7.27481148	     -4.01820581	     -7.29113526	     -3.49909972
      0.60383333	     -0.00839979	      6.24009543	      4.65152309	     -0.82151338	      0.98953429	      0.24789307	     24.05246059	     -4.72952382	     -3.91179987	     -7.61018344	      4.08580496	    -11.09857230	      8.33851642	    -18.27706853	      8.22361828	      7.55466271	    -13.19884687	      8.71059573	    -10.65033762	      7.81160835	     -3.89067290	     -7.10414255	     -3.52916959
      0.60800000	      0.02588139	      6.10846002	      4.66453474	     -0.81498743	      0.98946613	      0.24811756	     23.94337484	     -4.55130316	     -3.80031309	     -8.14477731	      3.63549548	    -11.31561476	     10.41190751	    -18.11577264	      8.03155227	      7.13747570	    -14.22862898	      8.29936711	    -10.27478059	     15.67735385	     -3.82672378	     -6.88485478	     -3.51843108
      0.61216667	     -0.00137801	      5.98112278	      4.67479180	     -0.80845422	      0.98933819	      0.24836892	     23.91549254	     -4.38058310	     -3.68782904	     -8.72256255	      3.27432025	    -11.45748712	     10.39045499	    -17.83270894	      7.84966766	      6.69243349	    -15.38137613	      8.01791289	     -9.76210867	     15.75789631	     -3.68533542	     -6.69098697	     -3.53450223
      0.61633333	     -0.02128296	      5.84657086	      4.67578701	     -0.80191672	      0.98927365	      0.24865833	     23.86538214	     -4.19875095	     -3.57762127	     -9.27193209	      2.89010274	    -11.61367687	     10.37926045	    -17.51944709	      7.65050629	      6.20080015	    -16.58689468	      7.66743915	     -9.20700320	     15.90276921	     -3.54861638	     -6.48870474	     -3.51459657
      0.62050000	     -0.01185356	      5.70170139	      4.65297082	     -0.79538745	      0.98925711	      0.24898530	     23.80624759	     -4.00118766	     -3.49402122	     -9.86715096	      2.52319248	    -11.77396165	     10.37393864	    -17.20724462	      7.43341875	      5.66397175	    -17.84034002	      7.29693293	     -8.59972944	     16.14548161	     -3.45059773	     -6.26102922	     -3.47722272
      0.62466667	     -0.02162833	      5.55660242	      4.62451448	     -0.78886343	      0.98925666	      0.24933995	     23.76632796	     -3.80528571	     -3.41913035	    -10.46218130	      2.18538043	    -11.89252683	     10.37300196	    -16.83273858	      7.20899713	      5.09791653	    -19.15456620	      6.84458197	     -8.00758530	     16.46649619	     -3.32608910	     -6.04325378	     -3.42578141
      0.62883333	     -0.03050872	      5.40238412	      4.58189612	     -0.78234126	      0.98932055	      0.24976402	     23.69691073	     -3.58606578	     -3.26986623	    -10.99389439	      1.76674048	    -12.15117349	     10.37196708	    -16.43631491	      6.96180100	      4.50955070	    -20.47592437	      6.20016048	     -7.50575060	     22.54192471	     -3.20017721	     -5.82543756	     -3.38455147
      0.63300000	     -0.02905016	      5.25384671	      4.52852837	     -0.77584968	      0.98938698	      0.25015648	     23.67665568	     -3.39498279	     -3.28888665	    -11.66157841	      1.61061327	    -12.01932425	     10.37123205	    -16.00818834	      6.72174477	      3.92402263	    -21.88168150	      5.61816760	     -6.97797278	     22.61870749	     -3.09081111	     -5.60601584	     -3.29844055
